# xmcd CD database file
#
# Track frame offsets:
#	183
#	10853
#	21285
#	32945
#	50003
#	65670
#	82378
#	94810
#	105465
#	124340
#
# Disc length: 1798 seconds
#
# Revision: 0
# Processed by: cddbd v1.5.2PL0 Copyright (c) Steve Scherf et al.
# Submitted via: CDex 1.51
#
DISCID=8b07040a
DTITLE=Texas Mavericks (feat. Doug Sahm) - Who Are These Masked Men?
DYEAR=1986
DGENRE=Country
TTITLE0=I Fought The Law
TTITLE1=Rock And Roll Ruby
TTITLE2=Just Let Her Go
TTITLE3=One More Time
TTITLE4=Brown Eyed Girl
TTITLE5=Hillbilly Soul-Mind And A Rockabilly
TTITLE6=Loven You Best
TTITLE7=Redneck Rock
TTITLE8=Sister Terry
TTITLE9=Mother-In-Law Blues
EXTD=YEAR: 1986
EXTT0=
EXTT1=
EXTT2=
EXTT3=
EXTT4=
EXTT5=
EXTT6=
EXTT7=
EXTT8=
EXTT9=
PLAYORDER=
